<?xml version="1.0" encoding="UTF-8" standalone="no"?>
<!-- Created with Inkscape (http://www.inkscape.org/) -->

<svg
   width="135.46666"
   height="135.46666"
   viewBox="0 0 128px 128px"
   version="1.1"
   id="svg1"
   xml:space="preserve"
   xmlns="http://www.w3.org/2000/svg"
   xmlns:svg="http://www.w3.org/2000/svg"><defs
     id="defs1" /><g
     id="g1"><rect
       style="fill:#f9f9f9;stroke-width:0.264583"
       id="rect1"
       width="135.46666"
       height="135.46666"
       x="-4.526367e-07"
       y="1.6259766e-07"
       ry="36.758301" /><path
       style="stroke-width:1.00666"
       d="M 5.883853,58.341161 C 8.742781,91.037631 29.812271,110.74811 65.206591,116.53642 64.038861,76.018191 37.019991,64.471751 5.883853,58.341161 Z"
       id="path6" /><path
       style="fill:#ff2a2a;fill-opacity:0.61315;stroke-width:1.00666"
       d="m 37.503191,61.834291 3.57365,-16.77104 c -6.02992,-5.17425 -16.50929,-7.99291 -26.81754,-10.70084 -0.2416,6.17085 0.68453,12.95577 1.34893,19.64003 8.00299,1.33886 15.23084,4.05685 21.89496,7.83185 z"
       id="path5" /><path
       style="stroke-width:1.00666"
       d="m 98.225191,61.834291 -3.57366,-16.77104 c 6.029919,-5.17425 16.509299,-7.99291 26.817569,-10.70084 0.2416,6.17085 -0.68454,12.95577 -1.34896,19.64003 -8.00298,1.33886 -15.22076,4.05685 -21.894949,7.83185 z"
       id="path4" /><path
       style="stroke-width:1.00666"
       d="m 43.996171,63.918081 c 2.32539,-18.66356 5.45612,-32.76693 24.01902,-44.987835 13.28797,10.509577 20.30442,16.821365 23.58615,45.199235 -9.78478,2.34553 -18.51256,12.90544 -23.69689,29.04225 -5.00312,-15.87507 -13.05644,-25.44846 -23.90828,-29.25365 z"
       id="path3" /><path
       style="fill:#ff2a2a;fill-opacity:1;stroke-width:1.00666"
       d="m 129.58281,58.341161 c -2.85894,32.69647 -23.92844,52.406949 -59.322759,58.195259 1.16773,-40.518229 28.1866,-52.064669 59.322759,-58.195259 z"
       id="path1" /><g
       id="g7"
       transform="translate(-110.98607,-25.957817)" /></g></svg>
