<?xml version="1.0" encoding="UTF-8" standalone="no"?>
<!-- Created with Inkscape (http://www.inkscape.org/) -->

<svg
   width="135.46666mm"
   height="135.46666mm"
   viewBox="0 0 135.46666 135.46666"
   version="1.1"
   id="svg1"
   xml:space="preserve"
   inkscape:version="1.3.2 (091e20e, 2023-11-25, custom)"
   sodipodi:docname="padmayoga.svg"
   inkscape:export-filename="..\..\..\..\..\padmayoga\yoga_bussiness\padmayoga\assets\icon\app_icon.png"
   inkscape:export-xdpi="96.000008"
   inkscape:export-ydpi="96.000008"
   xmlns:inkscape="http://www.inkscape.org/namespaces/inkscape"
   xmlns:sodipodi="http://sodipodi.sourceforge.net/DTD/sodipodi-0.dtd"
   xmlns="http://www.w3.org/2000/svg"
   xmlns:svg="http://www.w3.org/2000/svg"><sodipodi:namedview
     id="namedview1"
     pagecolor="#ffffff"
     bordercolor="#000000"
     borderopacity="0.25"
     inkscape:showpageshadow="2"
     inkscape:pageopacity="0.0"
     inkscape:pagecheckerboard="0"
     inkscape:deskcolor="#d1d1d1"
     inkscape:document-units="mm"
     inkscape:export-bgcolor="#ffffff00"
     inkscape:zoom="1.0293026"
     inkscape:cx="252.59822"
     inkscape:cy="280.28687"
     inkscape:window-width="1920"
     inkscape:window-height="1094"
     inkscape:window-x="-11"
     inkscape:window-y="-11"
     inkscape:window-maximized="1"
     inkscape:current-layer="layer1"
     showguides="true" /><defs
     id="defs1" /><g
     inkscape:label="Layer 1"
     inkscape:groupmode="layer"
     id="layer1"
     transform="translate(-94.020699,-65.029579)"><g
       id="g8"><rect
         style="fill:#f9f9f9;stroke-width:0.264583"
         id="rect1"
         width="135.46666"
         height="135.46666"
         x="94.020699"
         y="65.029579"
         ry="36.758301" /><path
         style="stroke-width:1.00666"
         d="m 99.904552,123.37074 c 2.858928,32.69647 23.928418,52.40695 59.322738,58.19526 -1.16773,-40.51823 -28.1866,-52.06467 -59.322738,-58.19526 z"
         id="path6" /><path
         style="fill:#3ebcff;fill-opacity:0.61314982;stroke-width:1.00666"
         d="m 131.52389,126.86387 3.57365,-16.77104 c -6.02992,-5.17425 -16.50929,-7.99291 -26.81754,-10.70084 -0.2416,6.17085 0.68453,12.95577 1.34893,19.64003 8.00299,1.33886 15.23084,4.05685 21.89496,7.83185 z"
         id="path5" /><path
         style="stroke-width:1.00666"
         d="m 192.24589,126.86387 -3.57366,-16.77104 c 6.02992,-5.17425 16.5093,-7.99291 26.81757,-10.70084 0.2416,6.17085 -0.68454,12.95577 -1.34896,19.64003 -8.00298,1.33886 -15.22076,4.05685 -21.89495,7.83185 z"
         id="path4" /><path
         style="stroke-width:1.00666"
         d="m 138.01687,128.94766 c 2.32539,-18.66356 5.45612,-32.76693 24.01902,-44.987835 13.28797,10.509577 20.30442,16.821365 23.58615,45.199235 -9.78478,2.34553 -18.51256,12.90544 -23.69689,29.04225 -5.00312,-15.87507 -13.05644,-25.44846 -23.90828,-29.25365 z"
         id="path3" /><path
         style="fill:#3ebcff;fill-opacity:1;stroke-width:1.00666"
         d="m 223.60351,123.37074 c -2.85894,32.69647 -23.92844,52.40695 -59.32276,58.19526 1.16773,-40.51823 28.1866,-52.06467 59.32276,-58.19526 z"
         id="path1" /><g
         id="g7"
         transform="translate(-16.965371,39.071762)" /></g></g></svg>