<svg id="sw-js-blob-svg" viewBox="0 0 100 100" xmlns="http://www.w3.org/2000/svg">
    <defs>
        <linearGradient id="sw-gradient" x1="0" x2="1" y1="1" y2="0">
            <stop id="stop1" stop-color="rgba(0, 210, 190, 1)" offset="0%"></stop>
            <stop id="stop2" stop-color="rgba(13, 220, 150, 1)" offset="100%"></stop>
        </linearGradient>
    </defs>
    <path fill="url(#sw-gradient)"
        d="M25.1,-30C31.6,-24.5,35.1,-15.7,36,-6.9C36.9,1.9,35.2,10.6,30.9,17.5C26.5,24.4,19.6,29.6,11.8,32.4C4,35.2,-4.6,35.8,-13.6,34C-22.6,32.2,-32,28,-35.7,20.9C-39.5,13.8,-37.6,3.8,-33.7,-3.8C-29.8,-11.4,-23.9,-16.4,-18,-22C-12,-27.5,-6,-33.5,1.7,-35.5C9.3,-37.4,18.7,-35.4,25.1,-30Z"
        width="100%" height="100%" transform="translate(50 50)" stroke-width="0"
        style="transition: 0.3s;"></path>
</svg>