<svg xmlns="http://www.w3.org/2000/svg" id="sw-js-blob-svg" viewBox="0 0 100 100" version="1.1">
    <defs>
        <linearGradient id="sw-gradient" x1="0" x2="1" y1="1" y2="0">
            <stop id="stop1" stop-color="rgb(207,239,246)" offset="0%"></stop>
            <stop id="stop2" stop-color="rgb(206,225,239)" offset="100%"></stop>
        </linearGradient>
    </defs>
    <path fill="url(#sw-gradient)"
        d="M25.8,-32.6C32,-25.6,34.6,-16.1,36.1,-6.5C37.6,3.1,38.1,12.7,34.5,20.9C30.9,29.2,23.3,36.2,14.1,40.1C4.9,44.1,-5.9,45,-14.4,41.2C-22.9,37.4,-29.1,28.9,-32.8,20.1C-36.5,11.3,-37.8,2.2,-36.7,-6.9C-35.6,-16,-32.2,-25.2,-25.7,-32.1C-19.2,-39.1,-9.6,-43.8,0.1,-44C9.8,-44.1,19.6,-39.6,25.8,-32.6Z"
        width="100%" height="100%" transform="translate(50 50)" stroke-width="0"
        style="transition: 0.3s;" />
</svg>