<svg id="sw-js-blob-svg" viewBox="0 0 100 100" xmlns="http://www.w3.org/2000/svg">
    <defs>
        <linearGradient id="sw-gradient" x1="0" x2="1" y1="1" y2="0">
            <stop id="stop1" stop-color="rgba(210, 0, 190, 1)" offset="0%"></stop>
            <stop id="stop2" stop-color="rgba(220, 13, 150, 1)" offset="100%"></stop>
        </linearGradient>
    </defs>
    <path fill="url(#sw-gradient)"
        d="M12.7,-18.1C18.2,-16.3,25.5,-15.6,27.4,-12.3C29.2,-8.9,25.7,-2.9,24.6,3.4C23.5,9.7,24.9,16.2,22.6,20.4C20.3,24.6,14.3,26.5,8.2,28.6C2.1,30.7,-4.1,32.9,-11.3,33.3C-18.5,33.6,-26.7,31.9,-29.5,26.7C-32.4,21.4,-29.9,12.7,-29.7,5.1C-29.6,-2.5,-31.7,-9,-29.7,-13.7C-27.7,-18.4,-21.7,-21.3,-16,-23C-10.4,-24.7,-5.2,-25.2,-0.8,-24C3.6,-22.8,7.3,-19.9,12.7,-18.1Z"
        width="100%" height="100%" transform="translate(50 50)" stroke-width="0"
        style="transition: 0.3s;" stroke="url(#sw-gradient)"></path>
</svg>